<svg width="6" height="6" viewBox="0 0 6 6" fill="none" xmlns="http://www.w3.org/2000/svg">
<path d="M5.55149 4.82801C5.59854 4.85307 5.625 4.8872 5.625 4.92279C5.625 4.95839 5.59854 4.99251 5.55149 5.01758L5.02467 5.30061C4.97958 5.32642 4.91662 5.34106 4.85072 5.34106C4.78483 5.34106 4.72187 5.32642 4.67677 5.30061L0.10934 2.84681C0.0394154 2.80929 8.68385e-05 2.75839 -4.31432e-07 2.7053L-4.42795e-07 2.63588C8.68097e-05 2.58278 0.0394154 2.53188 0.10934 2.49436L4.67677 0.040566C4.72187 0.0147524 4.78483 0.000109235 4.85072 0.000109232C4.91662 0.000109229 4.97958 0.0147524 5.02467 0.040566L5.55149 0.323593C5.59854 0.348661 5.625 0.382784 5.625 0.418381C5.625 0.453978 5.59854 0.488101 5.55149 0.513168L1.53573 2.67059L5.55149 4.82801Z" fill="#898989"/>
</svg>
