<svg width="35" height="35" viewBox="0 0 35 35" fill="none" xmlns="http://www.w3.org/2000/svg">
<path d="M33.3342 16.3259H18.6675V1.65926C18.6675 1.30564 18.5271 0.966501 18.277 0.716452C18.027 0.466404 17.6878 0.325928 17.3342 0.325928C16.9806 0.325928 16.6414 0.466404 16.3914 0.716452C16.1413 0.966501 16.0009 1.30564 16.0009 1.65926V16.3259H1.33421C0.980585 16.3259 0.641447 16.4664 0.391398 16.7165C0.14135 16.9665 0.000873709 17.3056 0.000873709 17.6593C-0.00570579 17.8325 0.0249361 18.0052 0.090734 18.1657C0.156532 18.3261 0.255957 18.4706 0.382309 18.5894C0.508661 18.7081 0.659005 18.7984 0.823208 18.8542C0.987411 18.91 1.16166 18.9299 1.33421 18.9126H16.0009V33.6593C16.0009 34.0129 16.1413 34.352 16.3914 34.6021C16.6414 34.8521 16.9806 34.9926 17.3342 34.9926C17.6878 34.9926 18.027 34.8521 18.277 34.6021C18.5271 34.352 18.6675 34.0129 18.6675 33.6593V18.9926H33.3342C33.6878 18.9926 34.027 18.8521 34.277 18.6021C34.5271 18.352 34.6675 18.0129 34.6675 17.6593C34.6675 17.3056 34.5271 16.9665 34.277 16.7165C34.027 16.4664 33.6878 16.3259 33.3342 16.3259Z" fill="white"/>
</svg>
